<?xml version="1.0" encoding="UTF-8" standalone="no"?>
<!-- Created with Inkscape (http://www.inkscape.org/) -->

<svg
   version="1.1"
   id="svg2"
   width="780"
   height="731"
   viewBox="0 0 780 731"
   sodipodi:docname="1662019967136.svg"
   inkscape:version="1.2.1 (9c6d41e410, 2022-07-14)"
   xmlns:inkscape="http://www.inkscape.org/namespaces/inkscape"
   xmlns:sodipodi="http://sodipodi.sourceforge.net/DTD/sodipodi-0.dtd"
   xmlns:xlink="http://www.w3.org/1999/xlink"
   xmlns="http://www.w3.org/2000/svg"
   xmlns:svg="http://www.w3.org/2000/svg">
  <defs
     id="defs6">
    <linearGradient
       inkscape:collect="always"
       id="linearGradient1066">
      <stop
         style="stop-color:#e78e18;stop-opacity:1;"
         offset="0"
         id="stop1062" />
      <stop
         style="stop-color:#e78e18;stop-opacity:0;"
         offset="1"
         id="stop1064" />
    </linearGradient>
    <linearGradient
       inkscape:collect="always"
       xlink:href="#linearGradient1066"
       id="linearGradient1068"
       x1="205.98093"
       y1="543.60382"
       x2="788.30298"
       y2="545.15253"
       gradientUnits="userSpaceOnUse" />
  </defs>
  <sodipodi:namedview
     id="namedview4"
     pagecolor="#ffffff"
     bordercolor="#000000"
     borderopacity="0.25"
     inkscape:showpageshadow="2"
     inkscape:pageopacity="0.0"
     inkscape:pagecheckerboard="0"
     inkscape:deskcolor="#d1d1d1"
     showgrid="false"
     inkscape:zoom="0.64569083"
     inkscape:cx="720.1589"
     inkscape:cy="452.22882"
     inkscape:window-width="2560"
     inkscape:window-height="1476"
     inkscape:window-x="-12"
     inkscape:window-y="-12"
     inkscape:window-maximized="1"
     inkscape:current-layer="g8" />
  <g
     inkscape:groupmode="layer"
     inkscape:label="Image"
     id="g8">
    <g
       id="g360"
       inkscape:label="g360">
      <path
         style="display:inline;fill:#51d3f5"
         d="m 382,721.16253 c -4.675,-2.6581 -12.55,-7.22762 -17.5,-10.1545 -4.95,-2.92688 -13.275,-7.79218 -18.5,-10.81177 -5.225,-3.0196 -15.70787,-9.00907 -23.29526,-13.30993 -7.58739,-4.30087 -19.73739,-11.28946 -27,-15.53021 C 288.44213,667.11538 277.1,660.48925 270.5,656.63139 c -6.6,-3.85786 -17.4,-10.03505 -24,-13.72708 -6.6,-3.69203 -15.15,-8.51391 -19,-10.71529 -3.85,-2.20137 -25.45,-14.66017 -48,-27.68622 -22.55,-13.02604 -47.3,-27.32329 -55,-31.77166 -7.7,-4.44838 -20.3607,-11.82315 -28.134894,-16.38839 -7.774192,-4.56525 -14.389131,-8.96297 -14.699863,-9.77273 -0.310733,-0.80976 0.199969,-2.3538 1.134894,-3.43121 C 83.735062,542.06141 95.3,535.01952 108.5,527.49018 c 13.2,-7.52934 24.45,-14.04131 25,-14.47106 0.55,-0.42974 16.525,-9.65728 35.5,-20.50565 18.975,-10.84838 39.9,-22.89754 46.5,-26.77593 6.6,-3.87839 12.85003,-7.84347 13.88895,-8.8113 1.03892,-0.96783 1.63267,-2.42752 1.31945,-3.24375 -0.31322,-0.81624 -4.98824,-4.08499 -10.38894,-7.2639 -5.4007,-3.17891 -15.66946,-9.13129 -22.81946,-13.22752 -7.15,-4.09622 -21.325,-12.18238 -31.5,-17.96925 -10.175,-5.78686 -21.65,-12.42806 -25.5,-14.75822 -3.85,-2.33016 -11.05,-6.59472 -16,-9.4768 -4.95,-2.88208 -13.725,-7.94888 -19.5,-11.25955 -5.775,-3.31067 -13.312886,-7.55897 -16.750858,-9.44067 -3.437971,-1.8817 -6.721281,-4.30026 -7.296244,-5.37459 -0.574962,-1.07433 -0.813195,-2.32902 -0.529405,-2.7882 0.283791,-0.45918 -0.532349,-0.63448 -1.813643,-0.38954 -1.791415,0.34245 -2.474354,-0.0952 -2.956083,-1.89446 -0.344552,-1.28688 -0.632602,-41.50216 -0.640112,-89.36728 -0.0119,-75.87651 0.179152,-87.30277 1.491097,-89.17583 0.827614,-1.18159 7.465114,-5.61834 14.75,-9.85946 C 98.539638,167.1961 108.775,161.24777 114,158.21871 c 5.225,-3.02905 13.55,-7.85254 18.5,-10.71886 4.95,-2.86633 20.475,-11.88697 34.5,-20.04589 14.025,-8.15892 30.45,-17.72092 36.5,-21.24888 6.05,-3.52797 15.05,-8.681178 20,-11.451576 4.95,-2.770398 13.05,-7.401002 18,-10.290231 4.95,-2.889229 15.525,-8.944558 23.5,-13.456287 7.975,-4.511729 17.65,-10.114907 21.5,-12.451508 3.85,-2.336601 11.5,-6.857172 17,-10.045713 5.5,-3.188541 14.05,-8.140781 19,-11.004978 4.95,-2.864196 15.525,-9.03263 23.5,-13.70763 7.975,-4.675 20.16649,-11.71686 27.0922,-15.6485784 6.92571,-3.9317182 13.67571,-7.1458063 15,-7.1424179 1.32429,0.00339 3.5328,0.5991838 4.9078,1.3239898 1.375,0.7248059 8.35,4.7134916 15.5,8.8637455 7.15,4.150255 37.75,21.919131 68,39.486391 30.25,17.567261 64.45,37.265835 76,43.774608 11.55,6.508775 23.475,13.292815 26.5,15.075645 3.025,1.78284 10.45,6.16944 16.5,9.74801 6.05,3.57858 18.425,10.75638 27.5,15.95067 9.075,5.1943 21,12.03701 26.5,15.20603 5.5,3.16902 15.4,8.94243 22,12.8298 6.6,3.88737 14.9867,8.81396 18.63712,10.94797 3.65042,2.13402 7.42502,4.75066 8.38801,5.81475 1.4251,1.57472 1.51812,2.21519 0.49988,3.44209 -0.68806,0.82906 -7.16266,4.95254 -14.38801,9.16329 -7.22535,4.21074 -20.112,11.71141 -28.637,16.66815 -8.525,4.95674 -28.325,16.44251 -44,25.52395 -15.675,9.08143 -36.51671,21.10973 -46.31491,26.72956 -9.7982,5.61983 -17.81663,10.54829 -17.81874,10.95213 -0.002,0.40384 3.28961,2.63045 7.31491,4.94801 4.02531,2.31757 12.94374,7.47949 19.81874,11.47094 6.875,3.99145 25.55,14.69137 41.5,23.7776 15.95,9.08623 31.925,18.21206 35.5,20.27963 3.575,2.06757 11,6.36099 16.5,9.54092 5.5,3.17994 15.85,9.25402 23,13.49797 13,7.71625 13,7.71625 13.25526,98.16787 0.25526,90.45161 0.25526,90.45161 -2,92.45741 -1.24039,1.10319 -10.35526,6.64824 -20.25526,12.32234 -9.9,5.6741 -20.025,11.55274 -22.5,13.06365 -2.475,1.51091 -28.125,16.35153 -57,32.97915 -28.875,16.62762 -64.65,37.23637 -79.5,45.79722 -14.85,8.56085 -40.95,23.65591 -58,33.54459 -17.05,9.88868 -34.825,20.21802 -39.5,22.95409 -4.675,2.73608 -13.86828,8.06101 -20.42952,11.83318 -6.56124,3.77217 -12.63624,6.85746 -13.5,6.85621 -0.86376,-10e-4 -5.39548,-2.17709 -10.07048,-4.83519 z"
         id="path374" />
      <path
         style="display:inline;fill:#f9d025"
         d="m 382,721.16253 c -4.675,-2.6581 -12.55,-7.22762 -17.5,-10.1545 -4.95,-2.92688 -13.275,-7.79218 -18.5,-10.81177 -5.225,-3.0196 -15.70787,-9.00907 -23.29526,-13.30993 -7.58739,-4.30087 -19.73739,-11.28946 -27,-15.53021 C 288.44213,667.11538 277.1,660.48925 270.5,656.63139 c -6.6,-3.85786 -17.4,-10.03505 -24,-13.72708 -6.6,-3.69203 -15.15,-8.51391 -19,-10.71529 -3.85,-2.20137 -25.45,-14.66017 -48,-27.68622 -22.55,-13.02604 -47.3,-27.32329 -55,-31.77166 -7.7,-4.44838 -20.3607,-11.82315 -28.134894,-16.38839 -7.774192,-4.56525 -14.389131,-8.96297 -14.699863,-9.77273 -0.310733,-0.80976 0.199969,-2.3538 1.134894,-3.43121 C 83.735062,542.06141 95.3,535.01952 108.5,527.49018 c 13.2,-7.52934 24.45,-14.04131 25,-14.47106 0.55,-0.42974 16.525,-9.65728 35.5,-20.50565 18.975,-10.84838 39.9,-22.89754 46.5,-26.77593 6.6,-3.87839 12.85003,-7.84347 13.88895,-8.8113 1.03892,-0.96783 1.63267,-2.42752 1.31945,-3.24375 -0.31322,-0.81624 -4.98824,-4.08499 -10.38894,-7.2639 -5.4007,-3.17891 -15.66946,-9.13129 -22.81946,-13.22752 -7.15,-4.09622 -21.325,-12.18238 -31.5,-17.96925 -10.175,-5.78686 -21.65,-12.42806 -25.5,-14.75822 -3.85,-2.33016 -11.05,-6.59472 -16,-9.4768 -4.95,-2.88208 -13.725,-7.94888 -19.5,-11.25955 -5.775,-3.31067 -13.312886,-7.55897 -16.750858,-9.44067 -3.437971,-1.8817 -6.761218,-4.37489 -7.384992,-5.54042 -0.969434,-1.8114 -0.750614,-2.42496 1.506798,-4.22496 1.452513,-1.15819 13.32576,-8.33569 26.384992,-15.94999 13.05923,-7.6143 29.59406,-17.23494 36.74406,-21.3792 7.15,-4.14426 15.925,-9.18835 19.5,-11.20908 3.575,-2.02073 14.375,-8.28388 24,-13.91811 9.625,-5.63424 26.5,-15.44327 37.5,-21.79786 11,-6.35459 28.325,-16.3946 38.5,-22.31112 10.175,-5.91653 29.975,-17.41457 44,-25.55119 14.025,-8.13663 30,-17.33715 35.5,-20.4456 5.5,-3.10845 12.25,-7.00272 15,-8.65392 2.75,-1.6512 7.7,-4.59058 11,-6.53195 3.3,-1.94138 7.98278,-4.52954 10.40618,-5.75148 2.4234,-1.22193 5.84622,-2.2217 7.60628,-2.2217 1.76006,0 4.61478,0.73156 6.34382,1.62568 1.72905,0.89412 3.14372,1.45639 3.14372,1.24948 0,-0.20692 -2.24492,-1.77173 -4.98872,-3.47737 -4.98872,-3.10115 -4.98872,-3.10115 -5.25,-86.899472 -0.1437,-46.089075 -0.12171,-85.73533 0.0489,-88.1027881 0.17059,-2.3674586 0.8658,-4.5176893 1.54491,-4.7782905 0.67912,-0.2606012 7.96455,3.4303432 16.18985,8.2020986 8.22529,4.771756 22.15508,12.810622 30.95508,17.864148 8.8,5.053526 27.025,15.609952 40.5,23.458726 13.475,7.848773 34.4,19.912865 46.5,26.809093 12.1,6.896228 33.025,18.864897 46.5,26.597045 13.475,7.73214 32.375,18.61284 42,24.17932 9.625,5.56649 23.575,13.6446 31,17.95136 7.425,4.30677 22.05,12.75216 32.5,18.76755 10.45,6.01538 19.65571,11.56752 20.45714,12.33809 0.91648,0.8812 1.10201,1.73401 0.5,2.29842 -0.52643,0.49356 -9.73214,5.96753 -20.45714,12.16437 -10.725,6.19685 -23.775,13.73852 -29,16.75929 -5.225,3.02076 -19.625,11.34345 -32,18.49487 -12.375,7.15142 -27.9,16.13759 -34.5,19.96929 -6.6,3.83169 -17.0821,9.89195 -23.29355,13.46724 -6.21146,3.5753 -11.12493,7.00641 -10.91883,7.6247 0.20609,0.61829 3.93819,3.19349 8.29355,5.72268 4.35536,2.52918 13.54383,7.86079 20.41883,11.84803 6.875,3.98723 25.55,14.6837 41.5,23.76993 15.95,9.08623 31.925,18.21206 35.5,20.27963 3.575,2.06757 11,6.36099 16.5,9.54092 5.5,3.17994 15.85,9.25402 23,13.49797 13,7.71625 13,7.71625 13.25526,98.16787 0.25526,90.45161 0.25526,90.45161 -2,92.45741 -1.24039,1.10319 -10.35526,6.64824 -20.25526,12.32234 -9.9,5.6741 -20.025,11.55274 -22.5,13.06365 -2.475,1.51091 -28.125,16.35153 -57,32.97915 -28.875,16.62762 -64.65,37.23637 -79.5,45.79722 -14.85,8.56085 -40.95,23.65591 -58,33.54459 -17.05,9.88868 -34.825,20.21802 -39.5,22.95409 -4.675,2.73608 -13.86828,8.06101 -20.42952,11.83318 -6.56124,3.77217 -12.63624,6.85746 -13.5,6.85621 -0.86376,-10e-4 -5.39548,-2.17709 -10.07048,-4.83519 z"
         id="path372" />
      <path
         style="display:inline;fill:url(#linearGradient1068);fill-opacity:1"
         d="m 388.5,724.30846 c -1.65,-0.88631 -16.05,-9.2418 -32,-18.56776 -15.95,-9.32596 -38,-22.26318 -49,-28.74938 -11,-6.48621 -27.875,-16.40772 -37.5,-22.04781 -9.625,-5.64009 -21.55,-12.59722 -26.5,-15.46029 -4.95,-2.86306 -13.725,-7.89497 -19.5,-11.182 -5.775,-3.28704 -16.8,-9.72575 -24.5,-14.30826 -7.7,-4.5825 -18.05,-10.66263 -23,-13.5114 -4.95,-2.84876 -13.95,-8.10139 -20,-11.67251 -6.05,-3.57112 -17.75,-10.46369 -26,-15.31683 -8.25,-4.85314 -21.525,-12.60628 -29.5,-17.2292 -7.975,-4.62292 -15.11449,-9.00385 -15.865533,-9.73541 -1.149428,-1.11961 -0.991171,-1.5585 1,-2.77327 C 87.43551,542.9606 91.875,540.2815 96,537.8008 c 4.125,-2.4807 23.475,-13.87166 43,-25.31324 19.525,-11.44157 44.275,-25.9763 55,-32.29941 10.725,-6.3231 24.3958,-14.35216 30.37955,-17.84235 5.98376,-3.49019 11.64319,-6.3458 12.57652,-6.3458 0.93333,0 10.43754,4.99752 21.12045,11.1056 10.68291,6.10807 22.34848,12.79497 25.92348,14.85976 3.575,2.06479 15.5,8.93812 26.5,15.27405 11,6.33593 26.075,15.00911 33.5,19.27372 7.425,4.26461 20.87396,11.96877 29.88657,17.12036 9.01262,5.15158 16.98362,9.36651 17.71336,9.36651 0.72973,0 6.85577,-3.21271 13.61342,-7.13936 6.75766,-3.92665 14.76165,-8.57764 17.78665,-10.33553 3.025,-1.75789 14.05,-8.1457 24.5,-14.19514 10.45,-6.04943 24.85,-14.39813 32,-18.55266 7.15,-4.15453 16.375,-9.59576 20.5,-12.09162 4.125,-2.49586 13.35,-7.86763 20.5,-11.93727 7.15,-4.06963 31.675,-18.34033 54.5,-31.71266 22.825,-13.37233 45.1,-26.42958 49.5,-29.01611 4.4,-2.58653 19.475,-11.36808 33.5,-19.51456 14.025,-8.14647 28.94048,-16.78911 33.14551,-19.20586 4.20503,-2.41675 8.93003,-4.48525 10.5,-4.59666 C 704.5,364.5 704.5,364.5 704.75529,454.57072 c 0.25528,90.07072 0.25528,90.07072 -2,92.07654 -1.24041,1.1032 -10.35529,6.64827 -20.25529,12.32237 -9.9,5.6741 -20.025,11.55274 -22.5,13.06365 -2.475,1.51091 -28.125,16.35153 -57,32.97915 -28.875,16.62762 -64.65,37.24039 -79.5,45.80615 -14.85,8.56576 -39.6,22.83216 -55,31.7031 -15.4,8.87094 -38.68196,22.28258 -51.73769,29.80365 -13.05572,7.52107 -24.08072,13.65665 -24.5,13.63463 -0.41927,-0.022 -2.11231,-0.76519 -3.76231,-1.6515 z M 531.97699,267.12361 C 526.21465,263.89159 515.65,257.81013 508.5,253.60925 c -7.15,-4.20088 -13,-8.044 -13,-8.54027 0,-0.49627 -0.40965,-1.27731 -0.91033,-1.73565 -0.52889,-0.48416 -0.60891,-0.30957 -0.19098,0.41667 0.39564,0.6875 0.35529,1.23753 -0.0897,1.2223 C 493.86406,244.95706 473.925,233.54216 450,219.60584 c -23.925,-13.93632 -43.5,-25.81135 -43.5,-26.38897 0,-0.57761 -0.40965,-1.4252 -0.91033,-1.88354 -0.52889,-0.48416 -0.60891,-0.30957 -0.19098,0.41667 0.39564,0.6875 0.44544,1.25 0.11067,1.25 -0.33478,0 -1.95105,-0.69416 -3.59172,-1.54259 -1.72818,-0.89367 -2.69395,-2.01033 -2.29583,-2.65451 0.4096,-0.66274 0.23337,-0.83143 -0.43624,-0.41759 -0.6179,0.38189 -2.82493,-0.2037 -4.90451,-1.30129 -2.07958,-1.0976 -3.42121,-2.01552 -2.9814,-2.03982 0.43981,-0.0243 2.12731,0.64236 3.75,1.48148 1.62269,0.83912 2.95034,1.35639 2.95034,1.14948 0,-0.20692 -2.24492,-1.77173 -4.98872,-3.47737 -4.98872,-3.10115 -4.98872,-3.10115 -5.25,-86.899472 -0.1437,-46.089075 -0.12171,-85.73533 0.0489,-88.1027881 0.17059,-2.3674586 0.8658,-4.5176893 1.54491,-4.7782905 0.67912,-0.2606012 7.96455,3.4303432 16.18985,8.2020986 8.22529,4.771756 22.15508,12.810622 30.95508,17.864148 8.8,5.053526 27.025,15.609952 40.5,23.458726 13.475,7.848773 34.4,19.912865 46.5,26.809093 12.1,6.896228 33.025,18.864897 46.5,26.597045 13.475,7.73214 32.375,18.61284 42,24.17932 9.625,5.56649 23.575,13.6446 31,17.95136 7.425,4.30677 22.05,12.75216 32.5,18.76755 10.45,6.01538 19.65571,11.56752 20.45714,12.33809 0.91648,0.8812 1.10201,1.73401 0.5,2.29842 -0.52643,0.49356 -9.73214,5.96753 -20.45714,12.16437 -10.725,6.19685 -23.775,13.73852 -29,16.75929 -5.225,3.02076 -19.625,11.34345 -32,18.49487 -12.375,7.15142 -27.9,16.13759 -34.5,19.96929 -6.6,3.83169 -17.0625,9.88073 -23.25,13.44231 -6.1875,3.56159 -11.25,7.10812 -11.25,7.88119 0,0.77308 -0.79785,1.40559 -1.77301,1.40559 -0.97515,0 -6.48765,-2.64438 -12.25,-5.87639 z"
         id="path368" />
      <path
         style="display:inline;fill:#008fd0"
         d="m 540.18082,269.48004 c -1.82555,-0.79292 -10.60055,-5.68214 -19.5,-10.86494 C 511.78137,253.4323 484.25,237.37214 459.5,222.92586 c -24.75,-14.44627 -50.4,-29.35884 -57,-33.13904 -6.6,-3.7802 -12.55824,-7.42799 -13.24052,-8.10619 -0.96801,-0.96222 -1.24709,-20.40779 -1.27042,-88.519332 C 387.97262,45.153875 388.21992,5.4531819 388.5386,4.9375367 388.85729,4.4218915 389.47124,4 389.90294,4 c 0.4317,0 7.49264,3.8914329 15.69098,8.647629 8.19835,4.756195 22.10608,12.782331 30.90608,17.835857 8.8,5.053526 27.025,15.609952 40.5,23.458726 13.475,7.848773 34.4,19.912865 46.5,26.809093 12.1,6.896228 33.025,18.864897 46.5,26.597045 13.475,7.73214 32.375,18.61284 42,24.17932 9.625,5.56649 23.575,13.6446 31,17.95136 7.425,4.30677 22.05,12.75216 32.5,18.76755 10.45,6.01538 19.65571,11.56752 20.45714,12.33809 0.91648,0.8812 1.10201,1.73401 0.5,2.29842 -0.52643,0.49356 -9.73214,5.96753 -20.45714,12.16437 -10.725,6.19685 -23.775,13.73852 -29,16.75929 -5.225,3.02076 -19.625,11.34308 -32,18.49405 -12.375,7.15096 -28.125,16.26422 -35,20.2517 -6.875,3.98747 -17.61931,10.2194 -23.87625,13.84872 -6.25694,3.62933 -11.65694,6.58117 -12,6.55964 -0.34306,-0.0215 -2.11738,-0.6879 -3.94293,-1.48082 z"
         id="path362" />
    </g>
  </g>
</svg>
